# xmcd CD database file
# Copyright (C) 1993-1997  Ti Kan
#
# Track frame offsets:
#	215
#	21192
#	41227
#	67115
#	103112
#	117757
#	133970
#	160190
#	182010
#	195317
#
# Disc length: 2853 seconds
#
# Revision: 1
# Processed by: cddbd v1.4b41PL1 Copyright (c) Steve Scherf et al.
# Submitted via: xmcd 2.1 PL2
#
DISCID=8c0b230a
DTITLE=Duke Robillard - Swing
DYEAR=1900
DGENRE=
TTITLE0=Cadillac Slim
TTITLE1=Jumpin' Blues
TTITLE2=Exactly Like You
TTITLE3=Glide On
TTITLE4=Zot
TTITLE5=I'll Always Be In Love With You
TTITLE6=Shufflin' With Some Barbeque
TTITLE7=Durn Tootin'
TTITLE8=You'd Better Change Your Ways
TTITLE9=Jim Jam
EXTD=
EXTT0=
EXTT1=
EXTT2=
EXTT3=
EXTT4=
EXTT5=
EXTT6=
EXTT7=
EXTT8=
EXTT9=
PLAYORDER=
